# xmcd
# Track frame offsets:
# 150
# 12642
# 25392
# 40506
# 50367
# 62372
# 75783
# 86747
# 100581
# 116577
#
# Disc length: 1722 seconds
# Revision: 0
# Processed by: cddbd v1.5.2PL0 Copyright (c) Steve Scherf et al.
# Submitted via: VisiTrax 2.10.3.257 - For more info visit www.synapsa.com
#
DISCID=6906b80a
DTITLE=Michael Scott - Rough Ride
DYEAR=1995
DGENRE=Country
TTITLE0=Tennessee
TTITLE1=Cold, Cold Heart
TTITLE2=One For The Road
TTITLE3=I Owe, I Owe
TTITLE4=Hey Baby
TTITLE5=Blame It On The Bottle
TTITLE6=On The Rise
TTITLE7=Bills Bills Bills
TTITLE8=I'll See You Around (Live Acoustic)
TTITLE9=Tennessee (MS Studio Groove)
EXTD=
EXTT0=
EXTT1=
EXTT2=
EXTT3=
EXTT4=
EXTT5=
EXTT6=
EXTT7=
EXTT8=
EXTT9=
PLAYORDER=
